<svg className="brain" xmlns="http://www.w3.org/2000/svg" viewBox="0 0 64 64">
  <rect width="64" height="64" rx="8" fill="white" />
  <path d="M23 57.9a8.01 8.01 0 01-7.29-4.55 5.94 5.94 0 01-6.96-5.8c0-1 .26-1.97.75-2.83a5.28 5.28 0 01-1.4-9.18c.48-.38 1.19-.3 1.57.18.38.47.3 1.17-.19 1.54a3.1 3.1 0 00-1.22 2.47 3.17 3.17 0 003.2 3.14c.3 0 .6.13.81.35.22.22.33.52.3.82-.01.29-.15.61-.36.8a3.65 3.65 0 002.52 6.4c.43 0 .86-.08 1.28-.23a1.11 1.11 0 011.45.7c.77 2.39 3 4 5.54 4 3.2 0 5.8-2.57 5.8-5.72A5.74 5.74 0 0026 45.1c-.53-.31-.7-1-.38-1.51.32-.52 1-.7 1.54-.37a7.94 7.94 0 013.9 6.77A8 8 0 0123 57.91z" />
  <path d="M12.57 38.47A6.53 6.53 0 016 32.01a6.45 6.45 0 012.85-5.32 7.12 7.12 0 01-.68-3.04c0-4 3.3-7.25 7.38-7.25s7.37 3.26 7.37 7.25c0 .61-.5 1.1-1.12 1.1s-1.12-.49-1.12-1.1a5.1 5.1 0 00-5.13-5.04 5.1 5.1 0 00-5.14 5.04c0 1.02.3 2 .89 2.84a1.09 1.09 0 01-.43 1.6l-.5.25a4.24 4.24 0 002.2 7.93c.62 0 1.12.49 1.12 1.1 0 .6-.5 1.1-1.12 1.1z" />
  <path d="M13.6 18.7c-.53 0-1-.36-1.1-.88a6.25 6.25 0 016.17-7.43c2.02 0 3.93.96 5.1 2.58.37.5.25 1.18-.25 1.54-.5.35-1.2.24-1.56-.25a4.09 4.09 0 00-3.3-1.67 4.02 4.02 0 00-3.97 4.79 1.1 1.1 0 01-1.1 1.32z" />
  <path d="M29.92 51.1c-.6 0-1.1-.49-1.12-1.1l-.52-37.66a4.17 4.17 0 00-4.2-4.14 4.17 4.17 0 00-4.12 3.36c-.11.6-.7 1-1.3.89a1.1 1.1 0 01-.9-1.29A6.4 6.4 0 0124.09 6a6.39 6.39 0 016.43 6.33l.53 37.65c0 .6-.5 1.1-1.11 1.11h-.02z" />
  <path d="M21.23 31.04a6.44 6.44 0 01-6.2-4.79 6.16 6.16 0 01-.14-2.26c.07-.6.63-1.04 1.25-.96.61.07 1.05.62.97 1.23a4.06 4.06 0 001.98 3.99 4.18 4.18 0 004.63-.23c.5-.36 1.2-.26 1.57.22.37.5.27 1.18-.23 1.55a6.4 6.4 0 01-3.83 1.25z" />
  <path d="M17.86 34.4c-.23 0-.46-.02-.7-.06a1.1 1.1 0 01-.92-1.26c.1-.6.66-1.01 1.28-.92.69.1 1.33-.1 1.76-.57.35-.4.48-.9.34-1.35a1.1 1.1 0 01.77-1.36c.6-.17 1.22.17 1.39.75a3.58 3.58 0 01-.82 3.41 4.14 4.14 0 01-3.1 1.35zM42.4 39.78c-.43 0-.84-.24-1.02-.66a1.1 1.1 0 01.57-1.45c.65-.27 1.07-.8 1.17-1.41.08-.52-.08-1.01-.44-1.32-.47-.4-.51-1.1-.1-1.56.4-.45 1.11-.5 1.58-.1a3.6 3.6 0 011.18 3.31 4.1 4.1 0 01-2.49 3.1c-.14.06-.3.1-.45.1zM18.9 47.4c-.45 0-.87-.27-1.04-.7a6.5 6.5 0 011.12-6.75 5.67 5.67 0 016.27-1.55c.58.23.86.87.63 1.43-.23.57-.88.85-1.45.62a3.44 3.44 0 00-3.77.95 4.32 4.32 0 00-.72 4.47 1.1 1.1 0 01-.62 1.44c-.14.06-.28.08-.42.08zM41.26 58a8 8 0 01-8.05-7.74 7.94 7.94 0 013.74-6.86 1.13 1.13 0 011.55.34c.33.51.18 1.2-.34 1.52a5.73 5.73 0 00-2.71 4.95 5.75 5.75 0 005.93 5.58 5.76 5.76 0 005.44-4.1c.09-.3.3-.54.56-.68.27-.13.6-.16.88-.06a3.7 3.7 0 004.94-3.56c-.02-1.03-.49-2-1.27-2.68a1.1 1.1 0 01-.38-.74 1.15 1.15 0 011.08-1.25 3.2 3.2 0 002.24-.97 3.09 3.09 0 00-.39-4.68c-.5-.37-.6-1.06-.22-1.55a1.13 1.13 0 011.57-.21 5.29 5.29 0 01-1.2 9.21c.5.85.8 1.82.81 2.82a5.93 5.93 0 01-6.83 5.95A8 8 0 0141.26 58z" />
  <path d="M51.4 38.34c-.61 0-1.11-.48-1.13-1.08 0-.6.48-1.1 1.1-1.12a4.34 4.34 0 003.03-1.31c.8-.83 1.23-1.9 1.2-3.04a4.26 4.26 0 00-2.26-3.65l-.45-.2a1.09 1.09 0 01-.46-1.6 4.95 4.95 0 00-.76-6.4 5.12 5.12 0 00-3.66-1.4 5.14 5.14 0 00-3.6 1.56 4.96 4.96 0 00-1.42 3.6c0 .61-.48 1.11-1.1 1.13-.62-.01-1.13-.47-1.15-1.08a7.14 7.14 0 012.05-5.17 7.39 7.39 0 015.17-2.24 7.34 7.34 0 017.53 7.1 7.11 7.11 0 01-.6 3.05 6.36 6.36 0 011.14 9.86 6.58 6.58 0 01-4.61 2h-.03z" />
  <path d="M49.94 18.6c-.07 0-.14 0-.2-.02a1.1 1.1 0 01-.9-1.28 3.98 3.98 0 00-4.09-4.7c-1.3.03-2.51.68-3.25 1.74-.35.5-1.05.63-1.56.28a1.09 1.09 0 01-.3-1.53 6.34 6.34 0 015.07-2.7 6.25 6.25 0 016.33 7.3c-.1.54-.57.91-1.1.91z" />
  <path d="M34.33 51.34c-.62 0-1.12-.49-1.12-1.1l-.32-37.66a6.38 6.38 0 016.3-6.45 6.42 6.42 0 016.44 5.02 1.12 1.12 0 01-2.2.45 4.16 4.16 0 00-4.2-3.27A4.2 4.2 0 0036.3 9.6a4.05 4.05 0 00-1.17 2.94l.32 37.69c0 .6-.5 1.1-1.11 1.1h-.01z" />
  <path d="M43.2 30.41a6.78 6.78 0 01-4.86-2.05c-.43-.45-.41-1.14.04-1.56.45-.42 1.16-.4 1.58.04a4.48 4.48 0 004.45 1.19 3.4 3.4 0 002.12-1.77c.19-.38.29-.79.31-1.22.03-.6.57-1.05 1.17-1.04.62.02 1.1.54 1.07 1.15a5.32 5.32 0 01-.52 2.06 5.6 5.6 0 01-3.5 2.92c-.6.19-1.23.28-1.86.28zM48.4 53.23c-.1 0-.2-.01-.3-.04a5.52 5.52 0 01-2.87-8.93c.4-.47 1.1-.53 1.58-.14s.54 1.08.15 1.55a3.33 3.33 0 001.73 5.4 1.1 1.1 0 01-.3 2.16z" />
</svg>